HIERARCHY
ROOT hip
{
	OFFSET 0.000000 0.000000 0.000000
	CHANNELS 6 Xposition Yposition Zposition Zrotation Yrotation Xrotation 
	JOINT lhipjoint
	{
		OFFSET 0.000000 0.000000 0.000000
		CHANNELS 3 Zrotation Yrotation Xrotation
		JOINT lfemur
		{
			OFFSET 1.363060 -1.794630 0.839290
			CHANNELS 3 Zrotation Yrotation Xrotation
			JOINT ltibia
			{
				OFFSET 2.448110 -6.726130 0.000000
				CHANNELS 3 Zrotation Yrotation Xrotation
				JOINT lfoot
				{
					OFFSET 2.562200 -7.039590 0.000000
					CHANNELS 3 Zrotation Yrotation Xrotation
					JOINT ltoes
					{
						OFFSET 0.157640 -0.433110 2.322550
						CHANNELS 3 Zrotation Yrotation Xrotation
						End Site
						{
							OFFSET 0.000000 0.000000 0.000000
						}
					}
				}
			}
		}
	}
	JOINT rhipjoint
	{
		OFFSET 0.000000 0.000000 0.000000
		CHANNELS 3 Zrotation Yrotation Xrotation
		JOINT rfemur
		{
			OFFSET -1.305520 -1.794630 0.839290
			CHANNELS 3 Zrotation Yrotation Xrotation
			JOINT rtibia
			{
				OFFSET -2.542530 -6.985550 0.000000
				CHANNELS 3 Zrotation Yrotation Xrotation
				JOINT rfoot
				{
					OFFSET -2.568260 -7.056230 0.000000
					CHANNELS 3 Zrotation Yrotation Xrotation
					JOINT rtoes
					{
						OFFSET -0.164730 -0.452590 2.363150
						CHANNELS 3 Zrotation Yrotation Xrotation
						End Site
						{
							OFFSET 0.000000 0.000000 0.000000
						}
					}
				}
			}
		}
	}
	JOINT lowerback
	{
		OFFSET 0.000000 0.000000 0.000000
		CHANNELS 3 Zrotation Yrotation Xrotation
		JOINT upperback
		{
			OFFSET 0.028270 2.035590 -0.193380
			CHANNELS 3 Zrotation Yrotation Xrotation
			JOINT thorax
			{
				OFFSET 0.056720 2.048850 -0.042750
				CHANNELS 3 Zrotation Yrotation Xrotation
				JOINT lowerneck
				{
					OFFSET 0.000000 0.000000 0.000000
					CHANNELS 3 Zrotation Yrotation Xrotation
					JOINT upperneck
					{
						OFFSET -0.054170 1.746240 0.172020
						CHANNELS 3 Zrotation Yrotation Xrotation
						JOINT head
						{
							OFFSET 0.104070 1.761360 -0.123970
							CHANNELS 3 Zrotation Yrotation Xrotation
							End Site
							{
								OFFSET 0.000000 0.000000 0.000000
							}
						}
					}
				}
				JOINT lclavicle
				{
					OFFSET 0.000000 0.000000 0.000000
					CHANNELS 3 Zrotation Yrotation Xrotation
					JOINT lhumerus
					{
						OFFSET 3.362410 1.200890 -0.311210
						CHANNELS 3 Zrotation Yrotation Xrotation
						JOINT lradius
						{
							OFFSET 4.983000 -0.000000 -0.000000
							CHANNELS 3 Zrotation Yrotation Xrotation
							JOINT lwrist
							{
								OFFSET 3.483560 -0.000000 -0.000000
								CHANNELS 3 Zrotation Yrotation Xrotation
								JOINT lhand
								{
									OFFSET 0.000000 0.000000 0.000000
									CHANNELS 3 Zrotation Yrotation Xrotation
									JOINT lfingers
									{
										OFFSET 0.715260 -0.000000 -0.000000
										CHANNELS 3 Zrotation Yrotation Xrotation
										End Site
										{
											OFFSET 0.000000 0.000000 0.000000
										}
									}
								}
								JOINT lthumb
								{
									OFFSET 0.000000 0.000000 0.000000
									CHANNELS 3 Zrotation Yrotation Xrotation
									End Site
									{
										OFFSET 0.000000 0.000000 0.000000
									}
								}
							}
						}
					}
				}
				JOINT rclavicle
				{
					OFFSET 0.000000 0.000000 0.000000
					CHANNELS 3 Zrotation Yrotation Xrotation
					JOINT rhumerus
					{
						OFFSET -3.136600 1.374050 -0.404650
						CHANNELS 3 Zrotation Yrotation Xrotation
						JOINT rradius
						{
							OFFSET -5.241900 -0.000000 -0.000000
							CHANNELS 3 Zrotation Yrotation Xrotation
							JOINT rwrist
							{
								OFFSET -3.444170 -0.000000 -0.000000
								CHANNELS 3 Zrotation Yrotation Xrotation
								JOINT rhand
								{
									OFFSET 0.000000 0.000000 0.000000
									CHANNELS 3 Zrotation Yrotation Xrotation
									JOINT rfingers
									{
										OFFSET -0.622530 -0.000000 -0.000000
										CHANNELS 3 Zrotation Yrotation Xrotation
										End Site
										{
											OFFSET 0.000000 0.000000 0.000000
										}
									}
								}
								JOINT rthumb
								{
									OFFSET 0.000000 0.000000 0.000000
									CHANNELS 3 Zrotation Yrotation Xrotation
									End Site
									{
										OFFSET 0.000000 0.000000 0.000000
									}
								}
							}
						}
					}
				}
			}
		}
	}
}
MOTION
Frames: 9
Frame Time: 0.008333
1.134094 17.865598 14.104382 -2.313492 9.377132 -7.218450 -2.106504 2.423784 1.686527 -8.811790 -12.291488 -8.397356 6.463758 13.778824 46.403551 1.344061 -5.271424 -6.312972 0.165800 -2.623500 -7.232300 0.807353 -4.090724 1.922679 20.917653 13.196880 -6.993483 -1.954551 -7.325284 24.659491 2.130074 -10.546018 -6.040311 -0.286800 3.444300 -9.518200 5.424191 -0.758828 13.565046 0.508387 -0.854305 -3.941586 -3.734149 0.718639 -0.762269 -0.126442 2.848151 -0.697274 -6.970120 4.263209 14.732645 -0.306600 1.303200 5.261600 4.668371 0.970231 1.136700 -97.475713 0.824997 -32.170123 3.382157 -18.173240 -1.099347 -0.859105 0.302107 46.246906 10.699535 -6.210550 -1.173700 -7.125000 0.000000 0.000000 -11.246200 24.098600 5.781600 -5.462539 0.573678 2.351623 89.064858 -4.399001 6.809015 -1.956702 23.247153 -1.345684 -1.280542 -0.714036 38.591298 -17.760270 14.723286 -4.941800 7.125000 0.000000 0.000000 7.039000 -13.142900 5.295100 
1.130405 17.886097 14.179920 -2.229304 9.521999 -7.106249 -2.104040 2.423904 1.659671 -8.928188 -12.470854 -8.642815 6.114941 13.439649 44.999375 1.430515 -5.665173 -6.656339 0.189200 -2.801700 -7.727000 0.814372 -4.103942 1.938190 20.968609 13.459881 -6.431962 -1.903968 -7.207374 24.312569 2.204797 -10.909121 -6.548444 -0.290800 3.467900 -9.584400 5.315235 -0.719450 13.454254 0.493597 -0.828727 -3.944478 -3.711705 0.733363 -0.727328 -0.139231 2.800042 -0.700733 -6.951870 4.196039 14.755775 -0.299100 1.270700 5.263800 4.655430 0.964540 1.125495 -97.462671 0.875437 -33.239739 3.265036 -17.803796 -1.064810 -0.879691 0.317573 47.555492 10.269342 -6.249086 -1.133500 -7.125000 0.000000 0.000000 -11.549200 24.091000 5.945600 -5.414763 0.580631 2.378228 89.013980 -4.594946 7.893592 -2.484120 23.826534 -1.393816 -1.280138 -0.812637 37.718945 -17.767018 14.662909 -4.958800 7.125000 0.000000 0.000000 7.007400 -13.129200 5.273000 
1.127125 17.907416 14.254330 -2.156571 9.642277 -7.003557 -2.102218 2.426119 1.638214 -9.036256 -12.637612 -8.831301 5.777430 13.098607 43.615516 1.515883 -6.072106 -6.939689 0.218000 -3.005500 -8.293900 0.819951 -4.118887 1.953411 21.049659 13.779602 -5.823459 -1.848529 -7.075937 23.926654 2.292485 -11.330335 -7.080808 -0.293500 3.484000 -9.629300 5.213252 -0.674576 13.345028 0.480913 -0.792873 -3.950255 -3.664373 0.752071 -0.704690 -0.175730 2.749134 -0.698642 -6.950820 4.128787 14.780381 -0.294900 1.235900 5.265000 4.636825 0.955614 1.113315 -97.456434 0.928497 -34.196497 3.165458 -17.473477 -1.037891 -0.893458 0.336738 48.758875 9.818714 -6.201738 -1.076400 -7.125000 0.000000 0.000000 -11.874200 24.160400 6.100500 -5.349244 0.590244 2.408802 88.918332 -4.843403 9.192047 -3.137210 24.506096 -1.454060 -1.276859 -0.929922 36.664925 -17.766902 14.591163 -4.976300 7.125000 0.000000 0.000000 6.976100 -13.113700 5.251400 
1.125280 17.925865 14.326896 -2.110057 9.748327 -6.908584 -2.098541 2.427975 1.618709 -9.129354 -12.780126 -8.988932 5.455166 12.760410 42.271992 1.586606 -6.438506 -7.104082 0.255100 -3.249600 -8.974400 0.825380 -4.134461 1.967160 21.162429 14.119437 -5.186840 -1.791771 -6.940133 23.530909 2.372019 -11.727044 -7.640336 -0.294800 3.491100 -9.649300 5.154884 -0.633804 13.237104 0.465464 -0.758260 -3.951747 -3.661066 0.774525 -0.656834 -0.190660 2.701323 -0.753456 -6.945538 4.060207 14.823369 -0.293200 1.199600 5.288300 4.607868 0.949169 1.099254 -97.381756 0.968129 -34.906481 3.082538 -17.198733 -1.017295 -0.902078 0.356012 49.630336 9.364748 -6.154267 -1.021400 -7.125000 0.000000 0.000000 -12.201600 24.221000 6.258700 -5.271486 0.595880 2.441571 88.817854 -5.110128 10.648387 -3.885450 25.276452 -1.525764 -1.269392 -1.060197 35.399010 -17.724141 14.564449 -4.997300 7.125000 0.000000 0.000000 6.973700 -13.047000 5.259300 
1.124460 17.942776 14.397104 -2.064916 9.837227 -6.804572 -2.097840 2.430513 1.601561 -9.226994 -12.931079 -9.143404 5.147735 12.423915 40.973252 1.623139 -6.700897 -7.021091 0.286300 -3.441000 -9.509000 0.829003 -4.148885 1.980430 21.280773 14.448938 -4.581599 -1.740402 -6.813726 23.164906 2.452429 -12.127232 -8.171502 -0.304300 3.546800 -9.805100 5.079710 -0.596508 13.137170 0.455872 -0.726641 -3.957206 -3.604497 0.791330 -0.632317 -0.240296 2.661570 -0.769812 -6.945006 4.007214 14.853666 -0.286500 1.169800 5.297200 4.576913 0.940958 1.087216 -97.336385 1.036833 -35.413226 3.019724 -16.995140 -1.005953 -0.901733 0.374576 50.170751 8.953557 -6.024711 -0.959200 -7.125000 0.000000 0.000000 -12.506600 24.350500 6.384000 -5.184815 0.601987 2.474367 88.663848 -5.382421 12.119408 -4.675352 26.038005 -1.604351 -1.259243 -1.189406 34.125349 -17.704024 14.538234 -5.024900 7.125000 0.000000 0.000000 6.958000 -12.976600 5.257700 
1.124665 17.956203 14.465775 -2.062015 9.900261 -6.709654 -2.096508 2.432245 1.586149 -9.294423 -13.076462 -9.291973 4.860310 12.098370 39.743100 1.627999 -6.835603 -6.780531 0.325700 -3.667900 -10.144200 0.832084 -4.162672 1.990441 21.450955 14.823913 -3.995344 -1.696275 -6.698716 22.840844 2.525842 -12.510929 -8.737831 -0.306300 3.558400 -9.837600 5.054025 -0.555766 13.015674 0.446243 -0.685506 -3.958902 -3.583671 0.816134 -0.576891 -0.246580 2.620797 -0.834615 -6.953428 3.948313 14.898410 -0.295200 1.138600 5.323300 4.543789 0.937510 1.074687 -97.247938 1.087788 -35.775480 2.973050 -16.840197 -0.998803 -0.900712 0.393463 50.577237 8.552437 -5.919940 -0.904300 -7.125000 0.000000 0.000000 -12.801500 24.452100 6.511000 -5.088324 0.602497 2.507306 88.529746 -5.650236 13.576889 -5.532726 26.852428 -1.691566 -1.241453 -1.323126 32.757648 -17.607443 14.567934 -5.046300 7.125000 0.000000 0.000000 6.994200 -12.855600 5.303300 
1.127330 17.965940 14.531371 -2.084386 9.911067 -6.643976 -2.097624 2.436461 1.577835 -9.355108 -13.220335 -9.363155 4.596632 11.790198 38.595293 1.614108 -6.862436 -6.520046 0.369000 -3.901900 -10.800900 0.832335 -4.177106 1.999235 21.657780 15.226605 -3.407323 -1.660817 -6.598614 22.566911 2.598265 -12.891126 -9.281146 -0.308200 3.568900 -9.866800 5.052508 -0.517388 12.949173 0.441384 -0.638391 -3.964014 -3.529813 0.841458 -0.564441 -0.267837 2.583991 -0.857103 -6.983543 3.899289 14.932419 -0.310600 1.111700 5.336400 4.505860 0.928211 1.062069 -97.192795 1.166810 -36.016856 2.949356 -16.751374 -0.995182 -0.900317 0.406784 50.725464 8.272989 -5.879085 -0.872600 -7.125000 0.000000 0.000000 -13.002900 24.488800 6.607300 -4.972521 0.609855 2.545412 88.320123 -5.967666 15.295974 -6.522185 27.734999 -1.799874 -1.221178 -1.484972 31.027216 -17.534238 14.482437 -5.048500 7.125000 0.000000 0.000000 7.011500 -12.824600 5.321200 
1.132762 17.971987 14.592765 -2.142278 9.860670 -6.587409 -2.098878 2.442226 1.573568 -9.394188 -13.381657 -9.375596 4.363363 11.508794 37.560577 1.580017 -6.748535 -6.291832 0.424100 -4.179800 -11.583000 0.832173 -4.191679 2.006488 21.894238 15.646117 -2.848529 -1.627708 -6.504135 22.312157 2.654796 -13.207538 -9.787244 -0.310300 3.580900 -9.900500 5.107133 -0.471867 12.892124 0.434576 -0.574906 -3.968487 -3.520366 0.877297 -0.553249 -0.254366 2.551116 -0.896722 -7.005072 3.850807 14.965287 -0.328600 1.087200 5.354900 4.463224 0.921640 1.048598 -97.094434 1.226360 -36.131403 2.935194 -16.689193 -0.994377 -0.896723 0.417379 50.707704 8.024393 -5.818932 -0.841300 -7.125000 0.000000 0.000000 -13.185300 24.540800 6.688500 -4.851670 0.615860 2.582450 88.126206 -6.270838 16.952730 -7.566167 28.646089 -1.917613 -1.190340 -1.651440 29.284862 -17.382533 14.383642 -5.024000 7.125000 0.000000 0.000000 7.078300 -12.813300 5.374300 
1.140654 17.976804 14.651699 -2.235016 9.785712 -6.530078 -2.104128 2.450690 1.571436 -9.421819 -13.607012 -9.321338 4.162210 11.258018 36.649606 1.526253 -6.480261 -6.148236 0.488800 -4.482700 -12.438900 0.829294 -4.206314 2.012759 22.160776 16.030678 -2.318330 -1.595558 -6.410220 22.060336 2.711153 -13.515567 -10.235759 -0.318000 3.624600 -10.022900 5.183096 -0.436003 12.838548 0.436724 -0.517336 -3.973113 -3.459966 0.908581 -0.534587 -0.255762 2.529744 -0.964667 -7.055162 3.819076 15.016411 -0.360400 1.067400 5.389100 4.426579 0.916092 1.034755 -97.044205 1.256472 -36.247595 2.923348 -16.634694 -0.992906 -0.892057 0.419741 50.675365 7.923528 -5.738870 -0.820200 -7.125000 0.000000 0.000000 -13.267000 24.614800 6.708700 -4.710635 0.613164 2.619158 87.860278 -6.582759 18.728019 -8.728294 29.601293 -2.055846 -1.147304 -1.838953 27.305788 -17.204700 14.152202 -4.959000 7.125000 0.000000 0.000000 7.156000 -12.923200 5.417700 
